<?xml version="1.0" encoding="UTF-8" standalone="no"?>
<!DOCTYPE svg PUBLIC "-//W3C//DTD SVG 1.1//EN" "http://www.w3.org/Graphics/SVG/1.1/DTD/svg11.dtd">
<svg width="100%" height="100%" viewBox="0 0 1000 1000" version="1.1" xmlns="http://www.w3.org/2000/svg" xmlns:xlink="http://www.w3.org/1999/xlink" xml:space="preserve" xmlns:serif="http://www.serif.com/" style="fill-rule:evenodd;clip-rule:evenodd;stroke-linejoin:round;stroke-miterlimit:2;">
    <g transform="matrix(1,0,0,1,0,-500)">
        <g id="logo-text" transform="matrix(0.12207,0,0,0.12207,0,500)">
            <rect x="0" y="0" width="8192" height="8192" style="fill:none;"/>
            <g transform="matrix(0.920048,0,0,0.914359,327.68,2048)">
                <g transform="matrix(8.97468,0,0,8.97468,-330.876,-2668.11)">
                    <path d="M879.31,573.44C881.401,569.723 882.978,565.74 884,561.6C885.063,557.487 885.755,553.287 886.07,549.05C886.723,540.623 886.024,532.146 884,523.94C882.02,515.812 878.614,508.099 873.94,501.16C869.264,494.319 863.349,488.414 856.5,483.75C854.8,482.57 853.05,481.51 851.25,480.47C849.45,479.43 847.6,478.47 845.72,477.47C843.84,476.47 841.96,475.65 840.07,474.76C838.18,473.87 836.25,473.06 834.29,472.33C826.51,469.245 818.481,466.829 810.29,465.11C793.88,461.755 777.095,460.602 760.38,461.68C743.628,462.702 727.011,465.306 710.75,469.46C702.61,471.51 694.55,473.89 686.57,476.53C678.641,479.137 670.853,482.158 663.24,485.58C647.955,492.578 633.129,500.537 618.85,509.41C604.42,518.23 590.3,527.69 576.21,537.26C562.12,546.83 548.11,556.65 534,566.36C520.14,575.87 506.8,586.21 493.4,596.78C480,607.35 466.64,618.11 452.84,628.5C439.04,638.89 424.84,648.97 410.11,658.26C395.303,667.699 379.833,676.055 363.82,683.26C347.65,690.522 330.832,696.248 313.59,700.36C296.254,704.454 278.53,706.68 260.72,707C242.968,707.313 225.224,705.974 207.72,703C190.07,700.024 172.836,694.961 156.38,687.92C139.815,680.831 124.282,671.541 110.2,660.3C103.179,654.664 96.557,648.55 90.38,642C84.213,635.456 78.493,628.503 73.26,621.19C68.014,613.892 63.251,606.259 59,598.34C54.785,590.376 51.127,582.129 48.05,573.66C35.763,539.595 33.548,502.701 41.67,467.41C45.701,449.957 52.093,433.135 60.67,417.41C69.221,401.792 79.704,387.311 91.87,374.31C97.925,367.827 104.364,361.713 111.15,356C117.92,350.318 125.008,345.026 132.38,340.15C147.08,330.45 162.768,322.338 179.18,315.95C195.502,309.579 212.4,304.797 229.64,301.67C246.827,298.577 264.268,297.117 281.73,297.31C290.43,297.46 299.12,297.96 307.73,298.91C316.399,299.856 325.004,301.315 333.5,303.28C350.504,307.164 366.894,313.365 382.21,321.71C397.46,330.02 411.42,340.28 424.64,351.21C437.86,362.14 450.37,373.84 463.02,385.36C449.59,374.75 436.44,363.79 422.71,353.67C408.98,343.55 394.8,334.11 379.59,326.8C372.007,323.158 364.201,319.998 356.22,317.34C348.265,314.693 340.144,312.575 331.91,311C323.646,309.451 315.299,308.393 306.91,307.83C298.54,307.26 290.13,307.15 281.73,307.32C264.962,307.696 248.268,309.658 231.87,313.18C215.521,316.644 199.541,321.667 184.15,328.18C168.831,334.655 154.223,342.697 140.56,352.18C126.996,361.611 114.579,372.592 103.56,384.9C81.66,409.51 65.8,439.35 59.12,471.24C50.584,511.288 56.615,553.097 76.12,589.1C80.013,596.225 84.355,603.096 89.12,609.67C108.208,636.123 134.191,656.841 164.23,669.56C179.28,675.931 195.019,680.535 211.13,683.28C227.378,686.058 243.849,687.32 260.33,687.05C276.748,686.776 293.093,684.792 309.1,681.13C325.188,677.428 340.892,672.214 356,665.56C363.593,662.227 371.063,658.6 378.41,654.68C385.757,650.76 393.003,646.613 400.15,642.24C428.75,624.74 455.43,603.78 482.67,582.97C496.3,572.59 510.14,562.12 524.67,552.6C538.93,543.2 553.18,533.71 567.56,524.35C581.94,514.99 596.56,505.81 611.5,497.13C618.99,492.81 626.6,488.63 634.34,484.67C642.08,480.71 650.02,477.05 658.11,473.67C666.205,470.315 674.47,467.384 682.87,464.89C691.19,462.39 699.613,460.217 708.14,458.37C725.181,454.593 742.55,452.492 760,452.1C777.509,451.669 794.997,453.58 812,457.78C820.491,459.921 828.784,462.781 836.79,466.33C838.79,467.19 840.79,468.18 842.72,469.13C844.65,470.08 846.61,471.13 848.49,472.25C850.37,473.37 852.25,474.48 854.11,475.63C855.97,476.78 857.81,478.06 859.57,479.41C866.663,484.734 872.695,491.341 877.35,498.89C881.946,506.381 885.142,514.646 886.78,523.28C888.416,531.814 888.672,540.555 887.54,549.17C886.986,553.45 886.046,557.67 884.73,561.78C883.46,565.894 881.637,569.817 879.31,573.44Z" style="fill:rgb(25,25,25);fill-rule:nonzero;"/>
                </g>
                <g transform="matrix(8.97468,0,0,8.97468,-330.876,-2668.11)">
                    <path d="M168.69,420C157.93,409.19 144.52,397.91 171.01,379.23C200.3,358.55 290.7,321.3 383,364.6C493,416.23 625.91,632.55 769.94,635.89C892.48,638.73 948.85,518.22 855.13,461.71C738.88,391.61 571.13,502.79 571.13,502.79C571.13,502.79 664.13,408.89 784.8,408.89C855.71,408.89 949.61,457.69 949.61,544.95C949.61,639.16 857.55,697.07 772.35,697.07C650.06,697.07 524.92,621.72 393.22,551.34C325.17,515 179.6,430.92 168.69,420Z" style="fill:rgb(237,28,36);fill-rule:nonzero;"/>
                </g>
            </g>
            <g transform="matrix(8.28131,0,0,6.66637,-1324.73,-4082.78)">
                <text x="210.54px" y="1553.96px" style="font-family:'SairaSemiCondensed-Medium', 'Saira SemiCondensed';font-weight:500;font-stretch:semi-condensed;font-size:85.531px;">W<tspan x="287.946px 343.284px 398.366px 475.772px 502.971px 549.5px 603.983px 627.418px 685.922px 735.957px 788.645px 837.91px 892.992px 937.212px 994.689px 1052.17px " y="1553.96px 1553.96px 1553.96px 1553.96px 1553.96px 1553.96px 1553.96px 1553.96px 1553.96px 1553.96px 1553.96px 1553.96px 1553.96px 1553.96px 1553.96px 1553.96px ">ARWICK HYPERLOOP</tspan></text>
            </g>
        </g>
    </g>
</svg>
