<?xml version="1.0" encoding="UTF-8" standalone="no"?>
<!DOCTYPE svg PUBLIC "-//W3C//DTD SVG 1.1//EN" "http://www.w3.org/Graphics/SVG/1.1/DTD/svg11.dtd">
<svg width="100%" height="100%" viewBox="0 0 2500 1047" version="1.1" xmlns="http://www.w3.org/2000/svg" xmlns:xlink="http://www.w3.org/1999/xlink" xml:space="preserve" xmlns:serif="http://www.serif.com/" style="fill-rule:evenodd;clip-rule:evenodd;stroke-linejoin:round;stroke-miterlimit:2;">
    <g transform="matrix(1,0,0,1,-9850,0)">
        <g id="site-header-mobile1" transform="matrix(0.305176,0,0,0.127808,9850,0)">
            <rect x="0" y="0" width="8192" height="8192" style="fill:none;"/>
            <clipPath id="_clip1">
                <rect x="0" y="0" width="8192" height="8192"/>
            </clipPath>
            <g clip-path="url(#_clip1)">
                <g transform="matrix(3.2768,0,0,7.82426,-32276.5,0)">
                    <path d="M11575.9,1046.97C11557.8,1046.97 11542.6,1045.97 11530.3,1043.97C11518.1,1041.97 11508.2,1038.62 11500.7,1033.91C11493.3,1029.21 11487.7,1022.68 11483.9,1014.32C11480.1,1005.97 11477.6,995.5 11476.4,982.912C11475.2,970.324 11474.6,955.206 11474.6,937.559L11474.6,801.324L11518.1,801.324L11518.1,949.912C11518.1,964.265 11518.6,975.853 11519.6,984.677C11520.6,993.5 11522.9,1000.26 11526.4,1004.97C11529.9,1009.68 11535.6,1012.85 11543.5,1014.5C11551.4,1016.15 11562.2,1016.97 11575.9,1016.97C11589.7,1016.97 11600.4,1016.15 11608.2,1014.5C11615.9,1012.85 11621.6,1009.68 11625.3,1004.97C11628.9,1000.26 11631.2,993.5 11632.1,984.677C11632.9,975.853 11633.4,964.265 11633.4,949.912L11633.4,801.324L11676.8,801.324L11676.8,937.559C11676.8,955.206 11676.2,970.324 11675,982.912C11673.8,995.5 11671.4,1005.97 11667.8,1014.32C11664.1,1022.68 11658.6,1029.21 11651.1,1033.91C11643.7,1038.62 11633.9,1041.97 11621.7,1043.97C11609.6,1045.97 11594.3,1046.97 11575.9,1046.97ZM11855.2,1046.97C11845.9,1046.97 11835.7,1046.74 11824.7,1046.27C11813.8,1045.8 11803,1045.21 11792.5,1044.5C11782,1043.8 11772.4,1042.97 11763.6,1042.03L11763.6,1012.74C11772.9,1013.44 11782.4,1014.15 11792.1,1014.85C11801.7,1015.56 11810.9,1016.09 11819.5,1016.44C11828.1,1016.8 11835.8,1016.97 11842.5,1016.97C11855.7,1016.97 11866.2,1016.38 11874.1,1015.21C11882,1014.03 11888.2,1011.91 11892.9,1008.85C11896.1,1006.74 11898.5,1004.03 11899.9,1000.74C11901.4,997.442 11902.4,993.736 11902.8,989.618C11903.2,985.5 11903.4,981.206 11903.4,976.736C11903.4,969.442 11903.2,963.5 11902.6,958.912C11902,954.324 11900.7,950.736 11898.6,948.147C11896.6,945.559 11893.3,943.559 11888.8,942.147C11884.2,940.736 11877.9,939.677 11869.7,938.971L11809.6,932.265C11798.5,931.089 11789.5,928.912 11782.7,925.736C11775.8,922.559 11770.4,918.324 11766.4,913.03C11762.5,907.736 11759.8,901.324 11758.3,893.794C11756.9,886.265 11756.1,877.559 11756.1,867.677C11756.1,853.559 11758.2,842.03 11762.5,833.088C11766.7,824.147 11773,817.147 11781.3,812.088C11789.7,807.029 11799.8,803.5 11811.8,801.5C11823.8,799.5 11837.4,798.5 11852.6,798.5C11862.2,798.5 11872.2,798.735 11882.4,799.206C11892.6,799.676 11902.2,800.382 11911.1,801.324C11920,802.265 11927.6,803.324 11933.7,804.5L11933.7,832.735C11927,831.794 11919.5,831.029 11911.3,830.441C11903.2,829.853 11894.8,829.382 11886.3,829.029C11877.9,828.677 11869.7,828.5 11861.8,828.5C11848.1,828.5 11837.2,829.147 11829.1,830.441C11821.1,831.735 11814.9,833.794 11810.5,836.618C11805.8,839.677 11802.8,843.559 11801.5,848.265C11800.2,852.971 11799.5,859.088 11799.5,866.618C11799.5,875.088 11800.1,881.618 11801.3,886.206C11802.5,890.794 11805.2,894.03 11809.6,895.912C11814,897.794 11820.6,899.206 11829.3,900.147L11888.5,906.853C11897,907.559 11904.6,908.794 11911.3,910.559C11918.1,912.324 11923.8,914.912 11928.7,918.324C11933.5,921.736 11937.4,926.5 11940.3,932.618C11941.7,935.442 11942.9,938.853 11943.8,942.853C11944.7,946.853 11945.4,951.383 11946,956.442C11946.6,961.5 11946.9,967.324 11946.9,973.912C11946.9,986.383 11945.5,996.971 11942.9,1005.68C11940.3,1014.38 11936.4,1021.44 11931.3,1026.85C11926.2,1032.27 11919.9,1036.44 11912.4,1039.38C11905,1042.32 11896.4,1044.32 11886.8,1045.38C11877.1,1046.44 11866.6,1046.97 11855.2,1046.97ZM10318.5,1044.15L10253.1,801.324L10297,801.324L10347.4,999.677L10350,999.677L10406.2,801.324L10453.1,801.324L10510.1,999.677L10512.3,999.677L10560.9,801.324L10604.3,801.324L10538.6,1044.15L10484.2,1044.15L10429.8,855.677L10427.6,855.677L10373.3,1044.15L10318.5,1044.15ZM11057.3,1044.15L11057.3,801.324L11100.7,801.324L11100.7,906.147L11219,906.147L11219,801.324L11262.9,801.324L11262.9,1044.15L11219,1044.15L11219,937.206L11100.7,937.206L11100.7,1044.15L11057.3,1044.15ZM10674.9,1044.15L10674.9,801.324L10718.8,801.324L10718.8,1044.15L10674.9,1044.15ZM10866.5,1044.15L10866.5,832.382L10788,832.382L10788,801.324L10988.4,801.324L10988.4,832.382L10909.9,832.382L10909.9,1044.15L10866.5,1044.15ZM10258.2,748.471C10239.5,748.471 10223.8,747.354 10211.3,745.118C10198.7,742.883 10188.5,739.118 10180.6,733.824C10172.7,728.53 10166.6,721.177 10162.4,711.765C10158.2,702.353 10155.3,690.471 10153.8,676.118C10152.4,661.765 10151.6,644.471 10151.6,624.236C10151.6,604 10152.4,586.706 10153.8,572.353C10155.3,558 10158.2,546.177 10162.4,536.882C10166.6,527.588 10172.7,520.235 10180.6,514.824C10188.5,509.412 10198.7,505.588 10211.3,503.353C10223.8,501.118 10239.5,500 10258.2,500C10265.2,500 10272.4,500.235 10279.9,500.706C10287.3,501.176 10294.5,501.824 10301.4,502.647C10308.2,503.471 10314,504.353 10318.7,505.294L10318.7,533.529C10312.8,532.824 10306.9,532.177 10300.7,531.588C10294.6,531 10288.8,530.588 10283.4,530.353C10278,530.118 10273,530 10268.3,530C10254.5,530 10243.2,530.588 10234.3,531.765C10225.4,532.941 10218.3,535.294 10213,538.824C10207.8,542.353 10203.8,547.588 10201.2,554.53C10198.6,561.471 10196.9,570.588 10196.1,581.883C10195.4,593.177 10195.1,607.294 10195.1,624.236C10195.1,641.177 10195.4,655.294 10196.1,666.589C10196.9,677.883 10198.6,687 10201.2,693.942C10203.8,700.883 10207.8,706.118 10213,709.648C10218.3,713.177 10225.4,715.53 10234.3,716.706C10243.2,717.883 10254.5,718.471 10268.3,718.471C10277,718.471 10286.1,718.118 10295.5,717.412C10304.8,716.706 10313,715.883 10320,714.942L10320,743.53C10314.7,744.471 10308.6,745.295 10301.6,746.001C10294.6,746.706 10287.3,747.295 10279.9,747.765C10272.4,748.236 10265.2,748.471 10258.2,748.471ZM10496.7,748.471C10478,748.471 10462.4,747.354 10449.8,745.118C10437.2,742.883 10427,739.118 10419.1,733.824C10411.2,728.53 10405.1,721.177 10400.9,711.765C10396.7,702.353 10393.8,690.471 10392.4,676.118C10390.9,661.765 10390.2,644.471 10390.2,624.236C10390.2,604 10390.9,586.706 10392.4,572.353C10393.8,558 10396.7,546.177 10400.9,536.882C10405.1,527.588 10411.2,520.235 10419.1,514.824C10427,509.412 10437.2,505.588 10449.8,503.353C10462.4,501.118 10478,500 10496.7,500C10503.7,500 10511,500.235 10518.4,500.706C10525.9,501.176 10533,501.824 10539.9,502.647C10546.8,503.471 10552.5,504.353 10557.2,505.294L10557.2,533.529C10551.4,532.824 10545.4,532.177 10539.2,531.588C10533.1,531 10527.3,530.588 10521.9,530.353C10516.5,530.118 10511.5,530 10506.8,530C10493,530 10481.7,530.588 10472.8,531.765C10463.9,532.941 10456.8,535.294 10451.5,538.824C10446.3,542.353 10442.3,547.588 10439.7,554.53C10437.1,561.471 10435.4,570.588 10434.7,581.883C10433.9,593.177 10433.6,607.294 10433.6,624.236C10433.6,641.177 10433.9,655.294 10434.7,666.589C10435.4,677.883 10437.1,687 10439.7,693.942C10442.3,700.883 10446.3,706.118 10451.5,709.648C10456.8,713.177 10463.9,715.53 10472.8,716.706C10481.7,717.883 10493,718.471 10506.8,718.471C10515.6,718.471 10524.6,718.118 10534,717.412C10543.3,716.706 10551.5,715.883 10558.5,714.942L10558.5,743.53C10553.3,744.471 10547.1,745.295 10540.1,746.001C10533.1,746.706 10525.9,747.295 10518.4,747.765C10511,748.236 10503.7,748.471 10496.7,748.471ZM11624.8,745.648L11716.9,502.824L11774.8,502.824L11866.4,745.648L11822.1,745.648L11798.9,683.177L11691,683.177L11668.2,745.648L11624.8,745.648ZM11484.3,651.623C11482.3,651.718 11480.2,651.765 11477.9,651.765L11412.2,651.765L11412.2,745.648L11368.8,745.648L11368.8,502.824L11486.3,502.824C11504.1,502.824 11518.3,504.588 11528.8,508.118C11539.3,511.647 11547.2,516.706 11552.5,523.294C11557.7,529.882 11561.2,537.765 11563,546.941C11564.7,556.118 11565.6,566.235 11565.6,577.294C11565.6,586 11564.8,595 11563.2,604.294C11561.6,613.589 11558,621.941 11552.3,629.353C11546.6,636.765 11537.7,642.353 11525.7,646.118L11570.9,745.648L11524.9,745.648L11484.3,651.623C11483.7,652.262 11484.3,651.623 11484.3,651.623ZM11987.4,745.648L11987.4,533.882L11908.9,533.882L11908.9,502.824L12109.3,502.824L12109.3,533.882L12030.8,533.882L12030.8,745.648L11987.4,745.648ZM12178.1,745.648L12178.1,502.824L12350,502.824L12350,532.824L12221.5,532.824L12221.5,608L12332.9,608L12332.9,638L12221.5,638L12221.5,715.648L12350,715.648L12350,745.648L12178.1,745.648ZM11116.2,745.648L11116.2,502.824L11288.1,502.824L11288.1,532.824L11159.6,532.824L11159.6,608L11271,608L11271,638L11159.6,638L11159.6,715.648L11288.1,715.648L11288.1,745.648L11116.2,745.648ZM10637,745.648L10637,502.824L10808.9,502.824L10808.9,532.824L10680.4,532.824L10680.4,608L10791.8,608L10791.8,638L10680.4,638L10680.4,715.648L10808.9,715.648L10808.9,745.648L10637,745.648ZM9850,745.648L9942.07,502.824L9999.95,502.824L10091.6,745.648L10047.3,745.648L10024.1,683.177L9916.2,683.177L9893.41,745.648L9850,745.648ZM10889.5,745.648L10889.5,502.824L10933,502.824L10933,714.589L11046.9,714.589L11046.9,745.648L10889.5,745.648ZM11702,653.53L11787.9,653.53L11746.3,538.824L11743.6,538.824L11702,653.53ZM9927.17,653.53L10013.1,653.53L9971.45,538.824L9968.82,538.824L9927.17,653.53ZM11412.2,621.765L11471.4,621.765C11483.1,621.765 11492.3,620.941 11499,619.294C11505.7,617.647 11510.7,615 11514.1,611.353C11517.5,607.706 11519.7,603.059 11520.7,597.412C11521.7,591.765 11522.2,585.059 11522.2,577.294C11522.2,569.294 11521.8,562.471 11520.9,556.824C11520,551.177 11518,546.588 11514.8,543.059C11511.6,539.53 11506.6,536.941 11499.9,535.294C11493.1,533.647 11484.1,532.824 11472.7,532.824L11412.2,532.824L11412.2,621.765ZM11093.3,331.567C11081,341.298 11068.7,351.108 11056,360.632C11041,371.945 11025.5,382.921 11009.5,393.036C10993.4,403.314 10976.5,412.412 10959.1,420.257C10941.5,428.165 10923.2,434.399 10904.4,438.877C10885.5,443.334 10866.2,445.758 10846.8,446.106C10827.5,446.447 10808.2,444.989 10789.1,441.751C10769.9,438.51 10751.1,432.998 10733.2,425.331C10715.2,417.613 10698.3,407.497 10682.9,395.257C10675.3,389.121 10668.1,382.463 10661.4,375.332C10654.6,368.206 10648.4,360.636 10642.7,352.673C10637,344.726 10631.8,336.415 10627.2,327.793C10622.6,319.121 10618.6,310.142 10615.3,300.92C10601.9,263.829 10599.5,223.656 10608.3,185.231C10612.7,166.227 10619.7,147.911 10629,130.788C10638.3,113.783 10649.7,98.016 10663,83.859C10669.6,76.801 10676.6,70.143 10684,63.923C10691.3,57.736 10699.1,51.974 10707.1,46.664C10723.1,36.103 10740.2,27.27 10758,20.314C10775.8,13.378 10794.2,8.171 10813,4.766C10831.7,1.398 10850.7,-0.192 10869.7,0.018C10879.2,0.182 10888.6,0.726 10898,1.761C10907.4,2.79 10916.8,4.379 10926.1,6.519C10944.6,10.748 10962.4,17.5 10979.1,26.586C10995.7,35.634 11010.9,46.806 11025.3,58.707C11039.7,70.608 11053.3,83.348 11067.1,95.891C11052.5,84.338 11038.2,72.405 11023.2,61.386C11008.3,50.367 10992.8,40.088 10976.3,32.128C10968,28.162 10959.5,24.722 10950.8,21.828C10942.1,18.945 10933.3,16.639 10924.3,14.925C10915.3,13.238 10906.3,12.086 10897.1,11.473C10888,10.852 10878.8,10.733 10869.7,10.918C10851.4,11.327 10833.3,13.464 10815.4,17.298C10797.6,21.07 10780.2,26.54 10763.5,33.631C10746.8,40.681 10730.9,49.438 10716,59.763C10701.2,70.032 10687.7,81.989 10675.7,95.39C10651.9,122.187 10634.6,154.678 10627.3,189.401C10618,233.007 10624.6,278.53 10645.8,317.732C10650.1,325.49 10654.8,332.971 10660,340.129C10680.8,368.933 10709.1,391.492 10741.8,405.34C10758.1,412.277 10775.3,417.291 10792.8,420.279C10810.5,423.303 10828.5,424.678 10846.4,424.384C10864.3,424.085 10882.1,421.925 10899.5,417.938C10917,413.907 10934.1,408.23 10950.6,400.985C10958.8,397.355 10967,393.406 10975,389.138C10983,384.87 10990.9,380.355 10998.6,375.593C11024.9,359.511 11049.7,340.745 11074.6,321.656C11047.1,306.881 11019.2,291.645 10991.1,276.617C10917,237.049 10758.5,145.499 10746.6,133.609C10734.9,121.838 10720.3,109.556 10749.1,89.216C10781,66.699 10879.5,26.14 10980,73.287C11041.5,102.165 11109.6,178.365 11182.6,246.156C11197.7,236.337 11213.1,226.71 11228.8,217.591C11236.9,212.887 11245.2,208.336 11253.6,204.024C11262.1,199.712 11270.7,195.727 11279.5,192.047C11288.3,188.393 11297.3,185.202 11306.5,182.487C11315.5,179.765 11324.7,177.398 11334,175.387C11352.5,171.274 11371.5,168.988 11390.5,168.56C11409.5,168.092 11428.6,170.172 11447.1,174.745C11456.3,177.076 11465.4,180.19 11474.1,184.055C11476.3,184.991 11478.4,186.069 11480.5,187.103C11482.6,188.138 11484.8,189.281 11486.8,190.501C11488.9,191.72 11490.9,192.929 11492.9,194.181C11495,195.433 11497,196.827 11498.9,198.297C11506.6,204.093 11513.2,211.288 11518.2,219.507C11523.2,227.664 11526.7,236.663 11528.5,246.064C11530.3,255.356 11530.6,264.874 11529.3,274.254C11528.7,278.914 11527.7,283.51 11526.3,287.985C11524.9,292.465 11522.9,296.736 11520.4,300.681C11522.6,296.634 11524.4,292.297 11525.5,287.789C11526.6,283.31 11527.4,278.737 11527.7,274.124C11528.4,264.948 11527.7,255.718 11525.5,246.783C11523.3,237.932 11519.6,229.534 11514.5,221.979C11509.4,214.53 11503,208.1 11495.5,203.022C11493.7,201.737 11491.8,200.583 11489.8,199.451C11487.9,198.318 11485.8,197.273 11483.8,196.184C11481.8,195.095 11479.7,194.203 11477.6,193.234C11475.6,192.265 11473.5,191.383 11471.4,190.588C11462.9,187.228 11454.1,184.598 11445.2,182.726C11427.4,179.073 11409.1,177.817 11390.9,178.992C11372.6,180.104 11354.5,182.94 11336.8,187.463C11328,189.695 11319.2,192.286 11310.5,195.161C11301.9,197.999 11293.4,201.289 11285.1,205.015C11268.5,212.634 11252.3,221.301 11236.8,230.962C11222.8,239.52 11209,248.631 11195.4,257.888C11260.7,317.054 11329.7,367.019 11401.3,368.679C11534.7,371.771 11596.1,240.555 11494,179.024C11367.5,102.696 11184.8,223.754 11184.8,223.754C11184.8,223.754 11286.1,121.511 11417.5,121.511C11494.7,121.511 11596.9,174.647 11596.9,269.659C11596.9,372.239 11496.7,435.294 11403.9,435.294C11302.7,435.294 11199.8,387.93 11093.3,331.567Z" style="fill:none;fill-rule:nonzero;stroke:rgb(113,113,122);stroke-width:4.17px;"/>
                </g>
            </g>
        </g>
    </g>
</svg>
