<?xml version="1.0" encoding="UTF-8" standalone="no"?>
<!DOCTYPE svg PUBLIC "-//W3C//DTD SVG 1.1//EN" "http://www.w3.org/Graphics/SVG/1.1/DTD/svg11.dtd">
<svg width="100%" height="100%" viewBox="0 0 5600 449" version="1.1" xmlns="http://www.w3.org/2000/svg" xmlns:xlink="http://www.w3.org/1999/xlink" xml:space="preserve" xmlns:serif="http://www.serif.com/" style="fill-rule:evenodd;clip-rule:evenodd;stroke-linejoin:round;stroke-miterlimit:2;">
    <g transform="matrix(1,0,0,1,-4200,0)">
        <g id="site-header-desktop1" transform="matrix(0.683594,0,0,0.0547974,4200,0)">
            <rect x="0" y="0" width="8192" height="8192" style="fill:none;"/>
            <clipPath id="_clip1">
                <rect x="0" y="0" width="8192" height="8192"/>
            </clipPath>
            <g clip-path="url(#_clip1)">
                <g transform="matrix(1.46286,0,0,18.2491,-6144,-9124.53)">
                    <path d="M4693.19,833.607C4680.83,843.398 4668.44,853.268 4655.72,862.851C4640.6,874.234 4625.04,885.277 4608.9,895.455C4592.68,905.796 4575.73,914.949 4558.19,922.843C4540.48,930.799 4522.05,937.072 4503.16,941.577C4484.17,946.062 4464.75,948.5 4445.24,948.851C4425.79,949.194 4406.35,947.727 4387.18,944.469C4367.84,941.208 4348.96,935.662 4330.93,927.948C4312.78,920.182 4295.77,910.004 4280.34,897.689C4272.65,891.515 4265.39,884.816 4258.62,877.641C4251.87,870.471 4245.6,862.855 4239.87,854.843C4234.12,846.847 4228.9,838.485 4224.25,829.81C4219.63,821.084 4215.62,812.05 4212.25,802.772C4198.79,765.452 4196.36,725.033 4205.26,686.37C4209.68,667.25 4216.68,648.821 4226.08,631.593C4235.44,614.483 4246.93,598.619 4260.26,584.375C4266.89,577.273 4273.94,570.575 4281.38,564.316C4288.8,558.091 4296.56,552.293 4304.64,546.952C4320.74,536.325 4337.93,527.438 4355.91,520.439C4373.79,513.46 4392.3,508.221 4411.19,504.795C4430.02,501.406 4449.13,499.807 4468.26,500.019C4477.79,500.183 4487.31,500.731 4496.74,501.771C4506.24,502.807 4515.67,504.406 4524.97,506.559C4543.6,510.814 4561.56,517.608 4578.34,526.75C4595.04,535.854 4610.34,547.094 4624.82,559.068C4639.3,571.043 4653.01,583.86 4666.87,596.481C4652.15,584.857 4637.75,572.85 4622.71,561.763C4607.66,550.676 4592.13,540.334 4575.47,532.326C4567.16,528.336 4558.61,524.874 4549.86,521.962C4541.15,519.062 4532.25,516.742 4523.23,515.016C4514.18,513.32 4505.03,512.16 4495.84,511.544C4486.67,510.919 4477.46,510.799 4468.26,510.985C4449.89,511.397 4431.6,513.546 4413.63,517.405C4395.72,521.2 4378.22,526.703 4361.35,533.838C4344.57,540.931 4328.57,549.742 4313.6,560.131C4298.74,570.463 4285.14,582.493 4273.06,595.977C4249.07,622.938 4231.7,655.629 4224.38,690.566C4215.03,734.44 4221.63,780.244 4243,819.687C4247.27,827.493 4252.02,835.02 4257.24,842.222C4278.16,871.203 4306.62,893.9 4339.53,907.834C4356.02,914.814 4373.26,919.858 4390.91,922.865C4408.71,925.908 4426.76,927.291 4444.81,926.995C4462.8,926.695 4480.71,924.521 4498.24,920.51C4515.87,916.453 4533.07,910.742 4549.62,903.452C4557.94,899.8 4566.12,895.827 4574.17,891.533C4582.22,887.238 4590.16,882.695 4597.99,877.904C4624.44,861.723 4649.38,842.841 4674.47,823.636C4646.71,808.769 4618.69,793.439 4590.4,778.319C4515.85,738.507 4356.37,646.394 4344.42,634.431C4332.63,622.588 4317.94,610.23 4346.96,589.765C4379.05,567.11 4478.08,526.301 4579.2,573.738C4641.11,602.794 4709.64,679.462 4783.06,747.671C4798.28,737.791 4813.74,728.105 4829.53,718.93C4837.74,714.197 4846.08,709.618 4854.56,705.279C4863.04,700.941 4871.73,696.931 4880.6,693.228C4889.47,689.552 4898.52,686.342 4907.72,683.61C4916.84,680.871 4926.07,678.49 4935.41,676.467C4954.08,672.328 4973.11,670.028 4992.22,669.598C5011.4,669.126 5030.56,671.219 5049.19,675.82C5058.49,678.166 5067.58,681.299 5076.35,685.187C5078.54,686.129 5080.73,687.214 5082.85,688.255C5084.96,689.295 5087.11,690.446 5089.17,691.673C5091.23,692.9 5093.29,694.116 5095.32,695.376C5097.36,696.636 5099.38,698.038 5101.31,699.517C5109.08,705.349 5115.68,712.588 5120.78,720.858C5125.82,729.064 5129.32,738.119 5131.11,747.578C5132.91,756.927 5133.19,766.504 5131.95,775.942C5131.34,780.63 5130.31,785.254 5128.87,789.757C5127.48,794.264 5125.48,798.562 5122.93,802.531C5125.22,798.459 5126.95,794.095 5128.07,789.559C5129.23,785.053 5129.99,780.452 5130.34,775.81C5131.05,766.579 5130.29,757.291 5128.07,748.301C5125.9,739.396 5122.17,730.946 5117.05,723.345C5111.93,715.85 5105.44,709.381 5097.94,704.271C5096.08,702.979 5094.16,701.817 5092.19,700.678C5090.22,699.539 5088.19,698.487 5086.13,697.391C5084.07,696.296 5082.01,695.398 5079.94,694.423C5077.87,693.447 5075.76,692.56 5073.61,691.76C5065.09,688.38 5056.29,685.734 5047.32,683.851C5029.34,680.175 5010.95,678.912 4992.64,680.093C4974.29,681.212 4956.08,684.066 4938.27,688.616C4929.35,690.862 4920.52,693.469 4911.78,696.362C4903.09,699.218 4894.56,702.527 4886.22,706.276C4869.47,713.943 4853.23,722.662 4837.59,732.383C4823.5,740.993 4809.68,750.161 4795.92,759.474C4861.62,819.005 4931.1,869.277 5003.11,870.947C5137.36,874.059 5199.11,742.035 5096.44,680.126C4969.08,603.328 4785.31,725.131 4785.31,725.131C4785.31,725.131 4887.19,622.259 5019.39,622.259C5097.08,622.259 5199.95,675.722 5199.95,771.319C5199.95,874.53 5099.09,937.973 5005.75,937.973C4903.96,937.973 4800.36,890.317 4693.19,833.607ZM9426.8,849.45C9408.56,849.45 9393.27,848.444 9380.92,846.432C9368.57,844.419 9358.64,841.046 9351.14,836.311C9343.64,831.576 9337.98,825.006 9334.16,816.602C9330.33,808.198 9327.83,797.663 9326.66,784.997C9325.48,772.331 9324.89,757.12 9324.89,739.365L9324.89,602.291L9368.57,602.291L9368.57,751.794C9368.57,766.235 9369.08,777.895 9370.11,786.772C9371.14,795.65 9373.42,802.457 9376.95,807.191C9380.48,811.926 9386.21,815.122 9394.15,816.78C9402.09,818.437 9412.97,819.265 9426.8,819.265C9440.62,819.265 9451.43,818.437 9459.22,816.78C9467.01,815.122 9472.75,811.926 9476.42,807.191C9480.1,802.457 9482.38,795.65 9483.26,786.772C9484.14,777.895 9484.59,766.235 9484.59,751.794L9484.59,602.291L9528.26,602.291L9528.26,739.365C9528.26,757.12 9527.67,772.331 9526.49,784.997C9525.32,797.663 9522.89,808.198 9519.21,816.602C9515.54,825.006 9509.95,831.576 9502.45,836.311C9494.95,841.046 9485.1,844.419 9472.89,846.432C9460.69,848.444 9445.32,849.45 9426.8,849.45ZM9707.8,849.45C9698.39,849.45 9688.17,849.213 9677.14,848.74C9666.11,848.266 9655.31,847.674 9644.72,846.964C9634.13,846.254 9624.43,845.425 9615.6,844.478L9615.6,815.004C9625.01,815.714 9634.57,816.424 9644.28,817.135C9653.98,817.845 9663.17,818.378 9671.85,818.733C9680.52,819.088 9688.24,819.265 9695.01,819.265C9708.24,819.265 9718.83,818.673 9726.77,817.49C9734.71,816.306 9741.03,814.175 9745.74,811.098C9748.98,808.967 9751.33,806.245 9752.8,802.93C9754.27,799.616 9755.22,795.887 9755.67,791.744C9756.11,787.601 9756.33,783.28 9756.33,778.782C9756.33,771.443 9756.03,765.466 9755.44,760.849C9754.86,756.233 9753.53,752.622 9751.48,750.018C9749.42,747.414 9746.11,745.402 9741.55,743.981C9736.99,742.561 9730.59,741.495 9722.36,740.785L9661.92,734.038C9650.75,732.854 9641.7,730.664 9634.79,727.468C9627.88,724.272 9622.44,720.011 9618.47,714.684C9614.5,709.358 9611.78,702.906 9610.31,695.331C9608.84,687.755 9608.1,678.995 9608.1,669.052C9608.1,654.848 9610.24,643.247 9614.5,634.251C9618.76,625.255 9625.09,618.212 9633.47,613.122C9641.85,608.032 9652.07,604.481 9664.13,602.468C9676.19,600.456 9689.86,599.45 9705.16,599.45C9714.86,599.45 9724.86,599.687 9735.15,600.16C9745.45,600.634 9755.08,601.344 9764.05,602.291C9773.02,603.238 9780.59,604.303 9786.77,605.487L9786.77,633.896C9780,632.949 9772.5,632.18 9764.27,631.588C9756.03,630.996 9747.65,630.522 9739.12,630.167C9730.59,629.812 9722.36,629.635 9714.42,629.635C9700.6,629.635 9689.64,630.286 9681.55,631.588C9673.47,632.89 9667.22,634.961 9662.81,637.802C9658.1,640.88 9655.09,644.786 9653.76,649.521C9652.44,654.256 9651.78,660.411 9651.78,667.987C9651.78,676.51 9652.36,683.079 9653.54,687.696C9654.72,692.312 9657.51,695.567 9661.92,697.461C9666.33,699.355 9672.95,700.776 9681.77,701.723L9741.33,708.47C9749.86,709.18 9757.5,710.423 9764.27,712.199C9771.03,713.974 9776.84,716.578 9781.69,720.011C9786.55,723.444 9790.44,728.238 9793.38,734.393C9794.85,737.234 9796.03,740.667 9796.91,744.691C9797.79,748.716 9798.53,753.273 9799.12,758.363C9799.71,763.453 9800,769.313 9800,775.941C9800,788.489 9798.68,799.142 9796.03,807.902C9793.38,816.661 9789.49,823.763 9784.34,829.209C9779.19,834.654 9772.87,838.856 9765.37,841.815C9757.87,844.774 9749.27,846.787 9739.56,847.852C9729.86,848.917 9719.27,849.45 9707.8,849.45ZM6053.84,849.45C6035.01,849.45 6019.28,848.325 6006.63,846.076C5993.99,843.827 5983.69,840.039 5975.75,834.713C5967.81,829.386 5961.71,821.988 5957.45,812.518C5953.18,803.048 5950.32,791.093 5948.85,776.652C5947.37,762.21 5946.64,744.81 5946.64,724.45C5946.64,704.09 5947.37,686.69 5948.85,672.248C5950.32,657.807 5953.18,645.911 5957.45,636.559C5961.71,627.208 5967.81,619.81 5975.75,614.365C5983.69,608.92 5993.99,605.073 6006.63,602.824C6019.28,600.575 6035.01,599.45 6053.84,599.45C6060.89,599.45 6068.17,599.687 6075.67,600.16C6083.17,600.634 6090.38,601.285 6097.29,602.113C6104.2,602.942 6110.01,603.83 6114.71,604.777L6114.71,633.186C6108.83,632.476 6102.8,631.825 6096.63,631.233C6090.45,630.641 6084.64,630.227 6079.2,629.99C6073.76,629.753 6068.69,629.635 6063.98,629.635C6050.16,629.635 6038.76,630.227 6029.79,631.41C6020.82,632.594 6013.69,634.961 6008.4,638.512C6003.11,642.064 5999.14,647.331 5996.49,654.315C5993.84,661.299 5992.15,670.473 5991.41,681.836C5990.68,693.2 5990.31,707.405 5990.31,724.45C5990.31,741.495 5990.68,755.7 5991.41,767.064C5992.15,778.427 5993.84,787.601 5996.49,794.585C5999.14,801.569 6003.11,806.836 6008.4,810.387C6013.69,813.939 6020.82,816.306 6029.79,817.49C6038.76,818.673 6050.16,819.265 6063.98,819.265C6072.81,819.265 6081.92,818.91 6091.33,818.2C6100.74,817.49 6108.98,816.661 6116.04,815.714L6116.04,844.478C6110.74,845.425 6104.57,846.254 6097.51,846.964C6090.45,847.674 6083.17,848.266 6075.67,848.74C6068.17,849.213 6060.89,849.45 6053.84,849.45ZM5813.86,849.45C5795.03,849.45 5779.3,848.325 5766.65,846.076C5754.01,843.827 5743.72,840.039 5735.77,834.713C5727.83,829.386 5721.73,821.988 5717.47,812.518C5713.2,803.048 5710.34,791.093 5708.86,776.652C5707.39,762.21 5706.66,744.81 5706.66,724.45C5706.66,704.09 5707.39,686.69 5708.86,672.248C5710.34,657.807 5713.2,645.911 5717.47,636.559C5721.73,627.208 5727.83,619.81 5735.77,614.365C5743.72,608.92 5754.01,605.073 5766.65,602.824C5779.3,600.575 5795.03,599.45 5813.86,599.45C5820.91,599.45 5828.19,599.687 5835.69,600.16C5843.19,600.634 5850.4,601.285 5857.31,602.113C5864.22,602.942 5870.03,603.83 5874.73,604.777L5874.73,633.186C5868.85,632.476 5862.82,631.825 5856.65,631.233C5850.47,630.641 5844.66,630.227 5839.22,629.99C5833.78,629.753 5828.71,629.635 5824,629.635C5810.18,629.635 5798.78,630.227 5789.81,631.41C5780.84,632.594 5773.71,634.961 5768.42,638.512C5763.12,642.064 5759.15,647.331 5756.51,654.315C5753.86,661.299 5752.17,670.473 5751.43,681.836C5750.7,693.2 5750.33,707.405 5750.33,724.45C5750.33,741.495 5750.7,755.7 5751.43,767.064C5752.17,778.427 5753.86,787.601 5756.51,794.585C5759.15,801.569 5763.12,806.836 5768.42,810.387C5773.71,813.939 5780.84,816.306 5789.81,817.49C5798.78,818.673 5810.18,819.265 5824,819.265C5832.82,819.265 5841.94,818.91 5851.35,818.2C5860.76,817.49 5869,816.661 5876.06,815.714L5876.06,844.478C5870.76,845.425 5864.59,846.254 5857.53,846.964C5850.47,847.674 5843.19,848.266 5835.69,848.74C5828.19,849.213 5820.91,849.45 5813.86,849.45ZM6677.17,846.609L6677.17,602.291L6850.1,602.291L6850.1,632.476L6720.84,632.476L6720.84,708.115L6832.89,708.115L6832.89,738.299L6720.84,738.299L6720.84,816.424L6850.1,816.424L6850.1,846.609L6677.17,846.609ZM8161.61,846.609L8095.88,602.291L8139.99,602.291L8190.72,801.865L8193.37,801.865L8249.83,602.291L8297.03,602.291L8354.38,801.865L8356.59,801.865L8405.56,602.291L8449.23,602.291L8383.06,846.609L8328.36,846.609L8273.65,656.978L8271.45,656.978L8216.75,846.609L8161.61,846.609ZM7188.89,846.609L7281.53,602.291L7339.76,602.291L7431.96,846.609L7387.4,846.609L7364.02,783.754L7255.5,783.754L7232.56,846.609L7188.89,846.609ZM8904.93,846.609L8904.93,602.291L8948.6,602.291L8948.6,707.76L9067.71,707.76L9067.71,602.291L9111.82,602.291L9111.82,846.609L9067.71,846.609L9067.71,739.01L8948.6,739.01L8948.6,846.609L8904.93,846.609ZM6449.1,846.609L6449.1,602.291L6492.77,602.291L6492.77,815.359L6607.47,815.359L6607.47,846.609L6449.1,846.609ZM6195,846.609L6195,602.291L6367.93,602.291L6367.93,632.476L6238.67,632.476L6238.67,708.115L6350.72,708.115L6350.72,738.299L6238.67,738.299L6238.67,816.424L6367.93,816.424L6367.93,846.609L6195,846.609ZM7745.61,846.609L7745.61,602.291L7918.54,602.291L7918.54,632.476L7789.28,632.476L7789.28,708.115L7901.33,708.115L7901.33,738.299L7789.28,738.299L7789.28,816.424L7918.54,816.424L7918.54,846.609L7745.61,846.609ZM8520.25,846.609L8520.25,602.291L8564.37,602.291L8564.37,846.609L8520.25,846.609ZM5403.15,846.609L5495.79,602.291L5554.02,602.291L5646.22,846.609L5601.67,846.609L5578.29,783.754L5469.77,783.754L5446.83,846.609L5403.15,846.609ZM7553.71,846.609L7553.71,633.541L7474.75,633.541L7474.75,602.291L7676.35,602.291L7676.35,633.541L7597.39,633.541L7597.39,846.609L7553.71,846.609ZM8713.03,846.609L8713.03,633.541L8634.07,633.541L8634.07,602.291L8835.67,602.291L8835.67,633.541L8756.7,633.541L8756.7,846.609L8713.03,846.609ZM7047.47,752.006C7045.47,752.101 7043.35,752.149 7041.11,752.149L6974.94,752.149L6974.94,846.609L6931.26,846.609L6931.26,602.291L7049.49,602.291C7067.43,602.291 7081.69,604.066 7092.28,607.618C7102.87,611.169 7110.81,616.259 7116.1,622.887C7121.4,629.516 7124.93,637.447 7126.69,646.68C7128.45,655.913 7129.34,666.093 7129.34,677.22C7129.34,685.979 7128.53,695.035 7126.91,704.386C7125.29,713.737 7121.62,722.142 7115.88,729.599C7110.15,737.057 7101.25,742.679 7089.19,746.467L7134.63,846.609L7088.31,846.609L7047.47,752.006C7046.95,752.487 7047.47,752.006 7047.47,752.006ZM5480.8,753.924L5567.26,753.924L5525.35,638.512L5522.7,638.512L5480.8,753.924ZM7266.53,753.924L7352.99,753.924L7311.09,638.512L7308.44,638.512L7266.53,753.924ZM6974.94,721.964L7034.49,721.964C7046.26,721.964 7055.52,721.136 7062.28,719.478C7069.05,717.821 7074.12,715.158 7077.5,711.488C7080.88,707.819 7083.09,703.143 7084.12,697.461C7085.15,691.78 7085.66,685.032 7085.66,677.22C7085.66,669.171 7085.22,662.305 7084.34,656.623C7083.46,650.941 7081.4,646.325 7078.16,642.774C7074.93,639.223 7069.93,636.619 7063.16,634.961C7056.4,633.304 7047.28,632.476 7035.82,632.476L6974.94,632.476L6974.94,721.964Z" style="fill:none;fill-rule:nonzero;stroke:rgb(113,113,122);stroke-width:4.17px;"/>
                </g>
            </g>
        </g>
    </g>
</svg>
